<?xml version="1.0" encoding="UTF-8" standalone="no"?>
<!-- Created with Inkscape (http://www.inkscape.org/) -->

<svg
   width="16"
   height="16"
   viewBox="0 0 4.2333332 4.2333333"
   version="1.1"
   id="svg1439"
   inkscape:version="1.2.1 (9c6d41e410, 2022-07-14)"
   sodipodi:docname="billing.svg"
   xmlns:inkscape="http://www.inkscape.org/namespaces/inkscape"
   xmlns:sodipodi="http://sodipodi.sourceforge.net/DTD/sodipodi-0.dtd"
   xmlns="http://www.w3.org/2000/svg"
   xmlns:svg="http://www.w3.org/2000/svg">
  <sodipodi:namedview
     id="namedview1441"
     pagecolor="#ffffff"
     bordercolor="#666666"
     borderopacity="1.0"
     inkscape:showpageshadow="2"
     inkscape:pageopacity="0.0"
     inkscape:pagecheckerboard="0"
     inkscape:deskcolor="#d1d1d1"
     inkscape:document-units="px"
     showgrid="false"
     inkscape:zoom="38.057741"
     inkscape:cx="4.1910002"
     inkscape:cy="5.9514831"
     inkscape:window-width="2048"
     inkscape:window-height="1089"
     inkscape:window-x="0"
     inkscape:window-y="0"
     inkscape:window-maximized="1"
     inkscape:current-layer="layer1" />
  <defs
     id="defs1436">
    <inkscape:path-effect
       effect="fillet_chamfer"
       id="path-effect2197"
       is_visible="true"
       lpeversion="1"
       nodesatellites_param="F,0,0,1,0,0.2,0,1 @ F,0,0,1,0,0.2,0,1 @ F,0,0,1,0,0.2,0,1 @ F,0,0,1,0,0.2,0,1 | F,0,0,1,0,0.2,0,1 @ F,0,0,1,0,0.2,0,1 @ F,0,0,1,0,0.2,0,1 @ F,0,0,1,0,0.2,0,1"
       unit="px"
       method="auto"
       mode="F"
       radius="0.2"
       chamfer_steps="1"
       flexible="false"
       use_knot_distance="true"
       apply_no_radius="true"
       apply_with_radius="true"
       only_selected="false"
       hide_knots="false" />
  </defs>
  <g
     inkscape:label="Layer 1"
     inkscape:groupmode="layer"
     id="layer1">
    <path
       id="rect1612"
       style="stroke-width:1.06338;stroke-linecap:round;stroke-linejoin:round"
       d="m 0,1.1260417 v 1.9812499 a 0.2,0.2 45 0 0 0.2,0.2 h 3.8333332 a 0.2,0.2 135 0 0 0.2,-0.2 V 1.1260417 a 0.2,0.2 45 0 0 -0.2,-0.20000005 l -3.8333332,0 A 0.2,0.2 135 0 0 0,1.1260417 Z M 0.59687499,1.3229166 H 3.6364583 a 0.2,0.2 45 0 1 0.2,0.2 v 1.1875 a 0.2,0.2 135 0 1 -0.2,0.2 H 0.59687499 a 0.2,0.2 45 0 1 -0.2,-0.2 v -1.1875 a 0.2,0.2 135 0 1 0.2,-0.2 z"
       sodipodi:nodetypes="cccccccccc"
       inkscape:path-effect="#path-effect2197"
       inkscape:original-d="M 0,0.92604165 V 3.3072916 H 4.2333332 V 0.92604165 Z M 0.39687499,1.3229166 H 3.8364583 v 1.5875 H 0.39687499 Z" />
    <circle
       style="fill:#000000;stroke-width:0.803987;stroke-linecap:round;stroke-linejoin:round"
       id="path1671"
       cx="2.1166666"
       cy="2.1166666"
       r="0.52916664" />
    <path
       id="circle1934"
       style="stroke-width:1.20598;stroke-linecap:round;stroke-linejoin:round"
       d="m 4.2333332,1.3229166 v 1.5875 a 0.79374998,0.79375002 0 0 1 -0.79375,-0.7937501 0.79374998,0.79375002 0 0 1 0.79375,-0.7937499 z" />
    <path
       id="path1941"
       style="stroke-width:1.20598;stroke-linecap:round;stroke-linejoin:round"
       d="m 0,1.3229166 v 1.5875 A 0.79374998,0.79375002 0 0 0 0.79374998,2.1166665 0.79374998,0.79375002 0 0 0 0,1.3229166 Z" />
  </g>
</svg>
